<svg width="1920" height="960" viewBox="0 0 1920 960" fill="none" xmlns="http://www.w3.org/2000/svg">
<g clip-path="url(#clip0_13_432)">
<rect width="1920" height="960" fill="white"/>
<rect width="1920" height="960" fill="url(#paint0_linear_13_432)"/>
<path d="M311.88 290.26V353.96C311.88 362.8 309.323 369.69 304.21 374.63C299.097 379.483 292.25 381.91 283.67 381.91C275.003 381.91 267.983 379.397 262.61 374.37C257.323 369.343 254.68 362.323 254.68 353.31H272.88C272.967 357.21 273.877 360.243 275.61 362.41C277.43 364.577 280.03 365.66 283.41 365.66C286.703 365.66 289.217 364.62 290.95 362.54C292.683 360.46 293.55 357.6 293.55 353.96V290.26H311.88ZM362.491 382.17C355.557 382.17 349.317 380.653 343.771 377.62C338.224 374.5 333.847 370.123 330.641 364.49C327.521 358.857 325.961 352.357 325.961 344.99C325.961 337.623 327.564 331.123 330.771 325.49C334.064 319.857 338.527 315.523 344.161 312.49C349.794 309.37 356.077 307.81 363.011 307.81C369.944 307.81 376.227 309.37 381.861 312.49C387.494 315.523 391.914 319.857 395.121 325.49C398.414 331.123 400.061 337.623 400.061 344.99C400.061 352.357 398.371 358.857 394.991 364.49C391.697 370.123 387.191 374.5 381.471 377.62C375.837 380.653 369.511 382.17 362.491 382.17ZM362.491 366.31C365.784 366.31 368.861 365.53 371.721 363.97C374.667 362.323 377.007 359.897 378.741 356.69C380.474 353.483 381.341 349.583 381.341 344.99C381.341 338.143 379.521 332.9 375.881 329.26C372.327 325.533 367.951 323.67 362.751 323.67C357.551 323.67 353.174 325.533 349.621 329.26C346.154 332.9 344.421 338.143 344.421 344.99C344.421 351.837 346.111 357.123 349.491 360.85C352.957 364.49 357.291 366.31 362.491 366.31ZM429.011 319.51C431.351 316.043 434.558 313.227 438.631 311.06C442.791 308.893 447.514 307.81 452.801 307.81C458.954 307.81 464.501 309.327 469.441 312.36C474.468 315.393 478.411 319.727 481.271 325.36C484.218 330.907 485.691 337.363 485.691 344.73C485.691 352.097 484.218 358.64 481.271 364.36C478.411 369.993 474.468 374.37 469.441 377.49C464.501 380.61 458.954 382.17 452.801 382.17C447.428 382.17 442.704 381.13 438.631 379.05C434.644 376.883 431.438 374.11 429.011 370.73V381H410.811V284.8H429.011V319.51ZM467.101 344.73C467.101 340.397 466.191 336.67 464.371 333.55C462.638 330.343 460.298 327.917 457.351 326.27C454.491 324.623 451.371 323.8 447.991 323.8C444.698 323.8 441.578 324.667 438.631 326.4C435.771 328.047 433.431 330.473 431.611 333.68C429.878 336.887 429.011 340.657 429.011 344.99C429.011 349.323 429.878 353.093 431.611 356.3C433.431 359.507 435.771 361.977 438.631 363.71C441.578 365.357 444.698 366.18 447.991 366.18C451.371 366.18 454.491 365.313 457.351 363.58C460.298 361.847 462.638 359.377 464.371 356.17C466.191 352.963 467.101 349.15 467.101 344.73ZM517.506 323.93V358.77C517.506 361.197 518.07 362.973 519.196 364.1C520.41 365.14 522.403 365.66 525.176 365.66H533.626V381H522.186C506.846 381 499.176 373.547 499.176 358.64V323.93H490.596V308.98H499.176V291.17H517.506V308.98H533.626V323.93H517.506ZM539.437 344.73C539.437 337.45 540.867 330.993 543.727 325.36C546.674 319.727 550.617 315.393 555.557 312.36C560.584 309.327 566.174 307.81 572.327 307.81C577.7 307.81 582.38 308.893 586.367 311.06C590.44 313.227 593.69 315.957 596.117 319.25V308.98H614.447V381H596.117V370.47C593.777 373.85 590.527 376.667 586.367 378.92C582.294 381.087 577.57 382.17 572.197 382.17C566.13 382.17 560.584 380.61 555.557 377.49C550.617 374.37 546.674 369.993 543.727 364.36C540.867 358.64 539.437 352.097 539.437 344.73ZM596.117 344.99C596.117 340.57 595.25 336.8 593.517 333.68C591.784 330.473 589.444 328.047 586.497 326.4C583.55 324.667 580.387 323.8 577.007 323.8C573.627 323.8 570.507 324.623 567.647 326.27C564.787 327.917 562.447 330.343 560.627 333.55C558.894 336.67 558.027 340.397 558.027 344.73C558.027 349.063 558.894 352.877 560.627 356.17C562.447 359.377 564.787 361.847 567.647 363.58C570.594 365.313 573.714 366.18 577.007 366.18C580.387 366.18 583.55 365.357 586.497 363.71C589.444 361.977 591.784 359.55 593.517 356.43C595.25 353.223 596.117 349.41 596.117 344.99ZM647.822 284.8V381H629.622V284.8H647.822ZM705.844 381L681.404 350.32V381H663.204V284.8H681.404V339.53L705.584 308.98H729.244L697.524 345.12L729.504 381H705.844Z" fill="white"/>
<path d="M255.88 480V440.4H284.56V445.92H262.3V457.32H279.7V462.72H262.3V474.48H285.4V480H255.88ZM296.605 450L305.065 462.84L306.265 463.02L318.445 480H310.825L302.005 466.8L300.625 466.32L288.865 450H296.605ZM318.265 450L306.505 466.08L305.185 466.02L295.585 480H288.265L301.045 462.9L302.305 463.02L310.885 450H318.265ZM335.624 480.6C332.624 480.6 329.984 479.98 327.704 478.74C325.424 477.5 323.644 475.72 322.364 473.4C321.124 471.04 320.504 468.24 320.504 465C320.504 461.76 321.124 458.98 322.364 456.66C323.644 454.3 325.404 452.5 327.644 451.26C329.884 450.02 332.424 449.4 335.264 449.4C338.184 449.4 340.664 450 342.704 451.2C344.744 452.4 346.304 454.04 347.384 456.12C348.464 458.2 349.004 460.56 349.004 463.2C349.004 463.92 348.984 464.6 348.944 465.24C348.904 465.88 348.844 466.44 348.764 466.92H324.644V462H345.944L342.764 462.96C342.764 460.24 342.084 458.16 340.724 456.72C339.364 455.24 337.504 454.5 335.144 454.5C333.424 454.5 331.924 454.9 330.644 455.7C329.364 456.5 328.384 457.7 327.704 459.3C327.024 460.86 326.684 462.78 326.684 465.06C326.684 467.3 327.044 469.2 327.764 470.76C328.484 472.32 329.504 473.5 330.824 474.3C332.144 475.1 333.704 475.5 335.504 475.5C337.504 475.5 339.124 475.12 340.364 474.36C341.604 473.6 342.584 472.54 343.304 471.18L348.404 473.58C347.684 475.02 346.704 476.28 345.464 477.36C344.264 478.4 342.824 479.2 341.144 479.76C339.464 480.32 337.624 480.6 335.624 480.6ZM355.911 480V450H361.371L361.971 455.4C362.771 453.44 363.951 451.96 365.511 450.96C367.111 449.92 369.071 449.4 371.391 449.4C371.991 449.4 372.591 449.46 373.191 449.58C373.791 449.66 374.291 449.8 374.691 450L373.791 455.64C373.351 455.48 372.851 455.36 372.291 455.28C371.771 455.16 371.051 455.1 370.131 455.1C368.891 455.1 367.671 455.44 366.471 456.12C365.271 456.76 364.271 457.74 363.471 459.06C362.711 460.38 362.331 462.06 362.331 464.1V480H355.911ZM391.753 449.4C394.153 449.4 396.193 449.76 397.873 450.48C399.593 451.16 401.033 452.14 402.193 453.42C403.353 454.7 404.233 456.16 404.833 457.8L398.773 460.2C398.253 458.36 397.413 456.96 396.253 456C395.133 455 393.653 454.5 391.813 454.5C390.013 454.5 388.473 454.92 387.193 455.76C385.913 456.56 384.933 457.74 384.253 459.3C383.613 460.86 383.293 462.78 383.293 465.06C383.293 467.3 383.633 469.2 384.313 470.76C384.993 472.32 385.973 473.5 387.253 474.3C388.533 475.1 390.053 475.5 391.813 475.5C393.173 475.5 394.353 475.28 395.353 474.84C396.353 474.36 397.173 473.7 397.813 472.86C398.493 471.98 398.953 470.92 399.193 469.68L405.013 471.66C404.453 473.46 403.573 475.04 402.373 476.4C401.213 477.72 399.753 478.76 397.993 479.52C396.233 480.24 394.213 480.6 391.933 480.6C388.973 480.6 386.353 479.98 384.073 478.74C381.793 477.5 380.013 475.72 378.733 473.4C377.493 471.04 376.873 468.24 376.873 465C376.873 461.76 377.493 458.98 378.733 456.66C380.013 454.3 381.773 452.5 384.013 451.26C386.293 450.02 388.873 449.4 391.753 449.4ZM414.525 444.96C413.125 444.96 412.045 444.62 411.285 443.94C410.565 443.22 410.205 442.22 410.205 440.94C410.205 439.66 410.565 438.68 411.285 438C412.045 437.32 413.125 436.98 414.525 436.98C415.885 436.98 416.925 437.32 417.645 438C418.405 438.68 418.785 439.66 418.785 440.94C418.785 442.22 418.405 443.22 417.645 443.94C416.925 444.62 415.885 444.96 414.525 444.96ZM417.705 450V480H411.285V450H417.705ZM439.51 449.4C441.91 449.4 443.95 449.76 445.63 450.48C447.35 451.16 448.79 452.14 449.95 453.42C451.11 454.7 451.99 456.16 452.59 457.8L446.53 460.2C446.01 458.36 445.17 456.96 444.01 456C442.89 455 441.41 454.5 439.57 454.5C437.77 454.5 436.23 454.92 434.95 455.76C433.67 456.56 432.69 457.74 432.01 459.3C431.37 460.86 431.05 462.78 431.05 465.06C431.05 467.3 431.39 469.2 432.07 470.76C432.75 472.32 433.73 473.5 435.01 474.3C436.29 475.1 437.81 475.5 439.57 475.5C440.93 475.5 442.11 475.28 443.11 474.84C444.11 474.36 444.93 473.7 445.57 472.86C446.25 471.98 446.71 470.92 446.95 469.68L452.77 471.66C452.21 473.46 451.33 475.04 450.13 476.4C448.97 477.72 447.51 478.76 445.75 479.52C443.99 480.24 441.97 480.6 439.69 480.6C436.73 480.6 434.11 479.98 431.83 478.74C429.55 477.5 427.77 475.72 426.49 473.4C425.25 471.04 424.63 468.24 424.63 465C424.63 461.76 425.25 458.98 426.49 456.66C427.77 454.3 429.53 452.5 431.77 451.26C434.05 450.02 436.63 449.4 439.51 449.4ZM472.241 480.6C469.241 480.6 466.601 479.98 464.321 478.74C462.041 477.5 460.261 475.72 458.981 473.4C457.741 471.04 457.121 468.24 457.121 465C457.121 461.76 457.741 458.98 458.981 456.66C460.261 454.3 462.021 452.5 464.261 451.26C466.501 450.02 469.041 449.4 471.881 449.4C474.801 449.4 477.281 450 479.321 451.2C481.361 452.4 482.921 454.04 484.001 456.12C485.081 458.2 485.621 460.56 485.621 463.2C485.621 463.92 485.601 464.6 485.561 465.24C485.521 465.88 485.461 466.44 485.381 466.92H461.261V462H482.561L479.381 462.96C479.381 460.24 478.701 458.16 477.341 456.72C475.981 455.24 474.121 454.5 471.761 454.5C470.041 454.5 468.541 454.9 467.261 455.7C465.981 456.5 465.001 457.7 464.321 459.3C463.641 460.86 463.301 462.78 463.301 465.06C463.301 467.3 463.661 469.2 464.381 470.76C465.101 472.32 466.121 473.5 467.441 474.3C468.761 475.1 470.321 475.5 472.121 475.5C474.121 475.5 475.741 475.12 476.981 474.36C478.221 473.6 479.201 472.54 479.921 471.18L485.021 473.58C484.301 475.02 483.321 476.28 482.081 477.36C480.881 478.4 479.441 479.2 477.761 479.76C476.081 480.32 474.241 480.6 472.241 480.6ZM510.84 480V450H516.3L516.9 455.4C517.7 453.44 518.88 451.96 520.44 450.96C522.04 449.92 524 449.4 526.32 449.4C526.92 449.4 527.52 449.46 528.12 449.58C528.72 449.66 529.22 449.8 529.62 450L528.72 455.64C528.28 455.48 527.78 455.36 527.22 455.28C526.7 455.16 525.98 455.1 525.06 455.1C523.82 455.1 522.6 455.44 521.4 456.12C520.2 456.76 519.2 457.74 518.4 459.06C517.64 460.38 517.26 462.06 517.26 464.1V480H510.84ZM546.922 480.6C543.922 480.6 541.282 479.98 539.002 478.74C536.722 477.5 534.942 475.72 533.662 473.4C532.422 471.04 531.802 468.24 531.802 465C531.802 461.76 532.422 458.98 533.662 456.66C534.942 454.3 536.702 452.5 538.942 451.26C541.182 450.02 543.722 449.4 546.562 449.4C549.482 449.4 551.962 450 554.002 451.2C556.042 452.4 557.602 454.04 558.682 456.12C559.762 458.2 560.302 460.56 560.302 463.2C560.302 463.92 560.282 464.6 560.242 465.24C560.202 465.88 560.142 466.44 560.062 466.92H535.942V462H557.242L554.062 462.96C554.062 460.24 553.382 458.16 552.022 456.72C550.662 455.24 548.802 454.5 546.442 454.5C544.722 454.5 543.222 454.9 541.942 455.7C540.662 456.5 539.682 457.7 539.002 459.3C538.322 460.86 537.982 462.78 537.982 465.06C537.982 467.3 538.342 469.2 539.062 470.76C539.782 472.32 540.802 473.5 542.122 474.3C543.442 475.1 545.002 475.5 546.802 475.5C548.802 475.5 550.422 475.12 551.662 474.36C552.902 473.6 553.882 472.54 554.602 471.18L559.702 473.58C558.982 475.02 558.002 476.28 556.762 477.36C555.562 478.4 554.122 479.2 552.442 479.76C550.762 480.32 548.922 480.6 546.922 480.6ZM580.17 449.4C582.57 449.4 584.61 449.76 586.29 450.48C588.01 451.16 589.45 452.14 590.61 453.42C591.77 454.7 592.65 456.16 593.25 457.8L587.19 460.2C586.67 458.36 585.83 456.96 584.67 456C583.55 455 582.07 454.5 580.23 454.5C578.43 454.5 576.89 454.92 575.61 455.76C574.33 456.56 573.35 457.74 572.67 459.3C572.03 460.86 571.71 462.78 571.71 465.06C571.71 467.3 572.05 469.2 572.73 470.76C573.41 472.32 574.39 473.5 575.67 474.3C576.95 475.1 578.47 475.5 580.23 475.5C581.59 475.5 582.77 475.28 583.77 474.84C584.77 474.36 585.59 473.7 586.23 472.86C586.91 471.98 587.37 470.92 587.61 469.68L593.43 471.66C592.87 473.46 591.99 475.04 590.79 476.4C589.63 477.72 588.17 478.76 586.41 479.52C584.65 480.24 582.63 480.6 580.35 480.6C577.39 480.6 574.77 479.98 572.49 478.74C570.21 477.5 568.43 475.72 567.15 473.4C565.91 471.04 565.29 468.24 565.29 465C565.29 461.76 565.91 458.98 567.15 456.66C568.43 454.3 570.19 452.5 572.43 451.26C574.71 450.02 577.29 449.4 580.17 449.4ZM599.701 480V450H605.161L605.761 455.4C606.561 453.44 607.741 451.96 609.301 450.96C610.901 449.92 612.861 449.4 615.181 449.4C615.781 449.4 616.381 449.46 616.981 449.58C617.581 449.66 618.081 449.8 618.481 450L617.581 455.64C617.141 455.48 616.641 455.36 616.081 455.28C615.561 455.16 614.841 455.1 613.921 455.1C612.681 455.1 611.461 455.44 610.261 456.12C609.061 456.76 608.061 457.74 607.261 459.06C606.501 460.38 606.121 462.06 606.121 464.1V480H599.701ZM634.025 480.6C632.065 480.6 630.245 480.24 628.565 479.52C626.925 478.8 625.605 477.64 624.605 476.04C623.605 474.44 623.105 472.36 623.105 469.8V450H629.525V468.18C629.525 470.9 630.105 472.78 631.265 473.82C632.425 474.82 634.045 475.32 636.125 475.32C637.125 475.32 638.085 475.16 639.005 474.84C639.965 474.48 640.825 473.94 641.585 473.22C642.345 472.46 642.925 471.5 643.325 470.34C643.765 469.18 643.985 467.82 643.985 466.26V450H650.405V480H644.765L644.465 475.14C643.425 477.02 642.025 478.4 640.265 479.28C638.505 480.16 636.425 480.6 634.025 480.6ZM667.995 441.18V471C667.995 472.48 668.375 473.56 669.135 474.24C669.935 474.92 670.995 475.26 672.315 475.26C673.395 475.26 674.335 475.1 675.135 474.78C675.935 474.42 676.675 473.94 677.355 473.34L678.795 478.02C677.875 478.82 676.735 479.46 675.375 479.94C674.055 480.38 672.575 480.6 670.935 480.6C669.215 480.6 667.635 480.32 666.195 479.76C664.755 479.2 663.635 478.3 662.835 477.06C662.035 475.78 661.615 474.12 661.575 472.08V442.98L667.995 441.18ZM678.315 450V455.04H655.815V450H678.315ZM696.664 480.6C693.664 480.6 691.024 479.98 688.744 478.74C686.464 477.5 684.684 475.72 683.404 473.4C682.164 471.04 681.544 468.24 681.544 465C681.544 461.76 682.164 458.98 683.404 456.66C684.684 454.3 686.444 452.5 688.684 451.26C690.924 450.02 693.464 449.4 696.304 449.4C699.224 449.4 701.704 450 703.744 451.2C705.784 452.4 707.344 454.04 708.424 456.12C709.504 458.2 710.044 460.56 710.044 463.2C710.044 463.92 710.024 464.6 709.984 465.24C709.944 465.88 709.884 466.44 709.804 466.92H685.684V462H706.984L703.804 462.96C703.804 460.24 703.124 458.16 701.764 456.72C700.404 455.24 698.544 454.5 696.184 454.5C694.464 454.5 692.964 454.9 691.684 455.7C690.404 456.5 689.424 457.7 688.744 459.3C688.064 460.86 687.724 462.78 687.724 465.06C687.724 467.3 688.084 469.2 688.804 470.76C689.524 472.32 690.544 473.5 691.864 474.3C693.184 475.1 694.744 475.5 696.544 475.5C698.544 475.5 700.164 475.12 701.404 474.36C702.644 473.6 703.624 472.54 704.344 471.18L709.444 473.58C708.724 475.02 707.744 476.28 706.504 477.36C705.304 478.4 703.864 479.2 702.184 479.76C700.504 480.32 698.664 480.6 696.664 480.6ZM716.952 480V450H722.652L722.952 455.04C723.992 453.12 725.372 451.7 727.092 450.78C728.852 449.86 730.712 449.4 732.672 449.4C734.832 449.4 736.812 449.9 738.612 450.9C740.452 451.86 741.832 453.32 742.752 455.28C743.392 453.96 744.272 452.86 745.392 451.98C746.512 451.1 747.752 450.46 749.112 450.06C750.472 449.62 751.812 449.4 753.132 449.4C755.052 449.4 756.852 449.8 758.532 450.6C760.212 451.4 761.572 452.62 762.612 454.26C763.652 455.9 764.172 458 764.172 460.56V480H757.752V461.58C757.752 459.14 757.172 457.38 756.012 456.3C754.852 455.22 753.372 454.68 751.572 454.68C750.172 454.68 748.872 455.02 747.672 455.7C746.512 456.38 745.572 457.4 744.852 458.76C744.132 460.08 743.772 461.72 743.772 463.68V480H737.352V461.58C737.352 459.14 736.772 457.38 735.612 456.3C734.452 455.22 732.972 454.68 731.172 454.68C729.972 454.68 728.772 455 727.572 455.64C726.372 456.28 725.372 457.28 724.572 458.64C723.772 460 723.372 461.8 723.372 464.04V480H716.952ZM785.905 480.6C782.905 480.6 780.265 479.98 777.985 478.74C775.705 477.5 773.925 475.72 772.645 473.4C771.405 471.04 770.785 468.24 770.785 465C770.785 461.76 771.405 458.98 772.645 456.66C773.925 454.3 775.685 452.5 777.925 451.26C780.165 450.02 782.705 449.4 785.545 449.4C788.465 449.4 790.945 450 792.985 451.2C795.025 452.4 796.585 454.04 797.665 456.12C798.745 458.2 799.285 460.56 799.285 463.2C799.285 463.92 799.265 464.6 799.225 465.24C799.185 465.88 799.125 466.44 799.045 466.92H774.925V462H796.225L793.045 462.96C793.045 460.24 792.365 458.16 791.005 456.72C789.645 455.24 787.785 454.5 785.425 454.5C783.705 454.5 782.205 454.9 780.925 455.7C779.645 456.5 778.665 457.7 777.985 459.3C777.305 460.86 776.965 462.78 776.965 465.06C776.965 467.3 777.325 469.2 778.045 470.76C778.765 472.32 779.785 473.5 781.105 474.3C782.425 475.1 783.985 475.5 785.785 475.5C787.785 475.5 789.405 475.12 790.645 474.36C791.885 473.6 792.865 472.54 793.585 471.18L798.685 473.58C797.965 475.02 796.985 476.28 795.745 477.36C794.545 478.4 793.105 479.2 791.425 479.76C789.745 480.32 787.905 480.6 785.905 480.6ZM806.193 480V450H811.893L812.313 457.8L811.473 456.96C812.033 455.24 812.833 453.82 813.873 452.7C814.953 451.54 816.213 450.7 817.653 450.18C819.133 449.66 820.693 449.4 822.333 449.4C824.453 449.4 826.353 449.82 828.033 450.66C829.753 451.46 831.113 452.68 832.113 454.32C833.113 455.96 833.613 458.04 833.613 460.56V480H827.193V462.54C827.193 459.58 826.573 457.54 825.333 456.42C824.133 455.26 822.613 454.68 820.773 454.68C819.453 454.68 818.173 455 816.933 455.64C815.693 456.24 814.653 457.22 813.813 458.58C813.013 459.94 812.613 461.76 812.613 464.04V480H806.193ZM850.549 441.18V471C850.549 472.48 850.929 473.56 851.689 474.24C852.489 474.92 853.549 475.26 854.869 475.26C855.949 475.26 856.889 475.1 857.689 474.78C858.489 474.42 859.229 473.94 859.909 473.34L861.349 478.02C860.429 478.82 859.289 479.46 857.929 479.94C856.609 480.38 855.129 480.6 853.489 480.6C851.769 480.6 850.189 480.32 848.749 479.76C847.309 479.2 846.189 478.3 845.389 477.06C844.589 475.78 844.169 474.12 844.129 472.08V442.98L850.549 441.18ZM860.869 450V455.04H838.369V450H860.869ZM269.86 509.4C276.06 509.4 280.88 511.12 284.32 514.56C287.8 517.96 289.54 522.84 289.54 529.2C289.54 535.56 287.8 540.46 284.32 543.9C280.88 547.3 276.06 549 269.86 549H255.88V509.4H269.86ZM269.86 543.54C274.06 543.54 277.26 542.3 279.46 539.82C281.7 537.3 282.82 533.76 282.82 529.2C282.82 524.64 281.7 521.12 279.46 518.64C277.26 516.12 274.06 514.86 269.86 514.86H262.3V543.54H269.86ZM310.164 549.6C307.164 549.6 304.524 548.98 302.244 547.74C299.964 546.5 298.184 544.72 296.904 542.4C295.664 540.04 295.044 537.24 295.044 534C295.044 530.76 295.664 527.98 296.904 525.66C298.184 523.3 299.944 521.5 302.184 520.26C304.424 519.02 306.964 518.4 309.804 518.4C312.724 518.4 315.204 519 317.244 520.2C319.284 521.4 320.844 523.04 321.924 525.12C323.004 527.2 323.544 529.56 323.544 532.2C323.544 532.92 323.524 533.6 323.484 534.24C323.444 534.88 323.384 535.44 323.304 535.92H299.184V531H320.484L317.304 531.96C317.304 529.24 316.624 527.16 315.264 525.72C313.904 524.24 312.044 523.5 309.684 523.5C307.964 523.5 306.464 523.9 305.184 524.7C303.904 525.5 302.924 526.7 302.244 528.3C301.564 529.86 301.224 531.78 301.224 534.06C301.224 536.3 301.584 538.2 302.304 539.76C303.024 541.32 304.044 542.5 305.364 543.3C306.684 544.1 308.244 544.5 310.044 544.5C312.044 544.5 313.664 544.12 314.904 543.36C316.144 542.6 317.124 541.54 317.844 540.18L322.944 542.58C322.224 544.02 321.244 545.28 320.004 546.36C318.804 547.4 317.364 548.2 315.684 548.76C314.004 549.32 312.164 549.6 310.164 549.6ZM349.312 519H356.032L344.092 549H337.072L325.072 519H332.092L340.612 543.42L349.312 519ZM384.145 549L372.505 509.4H379.285L388.165 543.42L396.805 509.4H403.405L412.105 543.48L420.925 509.4H427.465L415.885 549H408.325L402.025 525.24L400.045 516.12H399.985L398.005 525.24L391.765 549H384.145ZM443.703 549.6C440.703 549.6 438.063 548.98 435.783 547.74C433.503 546.5 431.723 544.72 430.443 542.4C429.203 540.04 428.583 537.24 428.583 534C428.583 530.76 429.203 527.98 430.443 525.66C431.723 523.3 433.483 521.5 435.723 520.26C437.963 519.02 440.503 518.4 443.343 518.4C446.263 518.4 448.743 519 450.783 520.2C452.823 521.4 454.383 523.04 455.463 525.12C456.543 527.2 457.083 529.56 457.083 532.2C457.083 532.92 457.063 533.6 457.023 534.24C456.983 534.88 456.923 535.44 456.843 535.92H432.723V531H454.023L450.843 531.96C450.843 529.24 450.163 527.16 448.803 525.72C447.443 524.24 445.583 523.5 443.223 523.5C441.503 523.5 440.003 523.9 438.723 524.7C437.443 525.5 436.463 526.7 435.783 528.3C435.103 529.86 434.763 531.78 434.763 534.06C434.763 536.3 435.123 538.2 435.843 539.76C436.563 541.32 437.583 542.5 438.903 543.3C440.223 544.1 441.783 544.5 443.583 544.5C445.583 544.5 447.203 544.12 448.443 543.36C449.683 542.6 450.663 541.54 451.383 540.18L456.483 542.58C455.763 544.02 454.783 545.28 453.543 546.36C452.343 547.4 450.903 548.2 449.223 548.76C447.543 549.32 445.703 549.6 443.703 549.6ZM480.071 549.6C478.311 549.6 476.691 549.26 475.211 548.58C473.771 547.9 472.551 546.96 471.551 545.76C470.551 544.52 469.811 543.14 469.331 541.62L470.111 540.6L469.631 549H463.991V505.5H470.411V526.56L469.691 525.54C470.451 523.46 471.751 521.76 473.591 520.44C475.431 519.08 477.651 518.4 480.251 518.4C482.651 518.4 484.851 519.02 486.851 520.26C488.891 521.5 490.491 523.28 491.651 525.6C492.811 527.92 493.391 530.74 493.391 534.06C493.391 537.3 492.791 540.08 491.591 542.4C490.431 544.72 488.831 546.5 486.791 547.74C484.791 548.98 482.551 549.6 480.071 549.6ZM478.691 544.44C481.291 544.44 483.311 543.52 484.751 541.68C486.231 539.8 486.971 537.24 486.971 534C486.971 530.76 486.251 528.22 484.811 526.38C483.371 524.54 481.351 523.62 478.751 523.62C477.071 523.62 475.611 524.06 474.371 524.94C473.131 525.78 472.151 526.98 471.431 528.54C470.751 530.1 470.411 531.96 470.411 534.12C470.411 536.24 470.751 538.08 471.431 539.64C472.111 541.16 473.071 542.34 474.311 543.18C475.591 544.02 477.051 544.44 478.691 544.44Z" fill="#F4F5F9"/>
<g filter="url(#filter0_d_13_432)">
<rect x="1174" y="595.481" width="395" height="360" rx="32" transform="rotate(-30 1174 595.481)" fill="white"/>
</g>
<path d="M1175 597.213C1166.16 581.907 1171.41 562.337 1186.71 553.5L1473.37 388C1488.67 379.163 1508.24 384.407 1517.08 399.713L1611.08 562.526L1269 760.026L1175 597.213Z" fill="#2EC6B3" fill-opacity="0.1"/>
<path d="M1348.22 804.712C1353.94 801.412 1354.13 796.105 1353.26 793.214L1348.69 794.362C1349.09 795.897 1349.05 798.762 1345.85 800.607C1343.1 802.197 1339.4 801.667 1337.4 798.211C1335.17 794.34 1336.93 790.969 1339.39 789.544C1342.64 787.669 1345.06 789.15 1346.08 790.258L1349.24 786.802C1347.12 784.497 1342.62 782.348 1337.08 785.543C1331.94 788.513 1329.83 794.93 1333.14 800.671C1336.46 806.413 1342.92 807.772 1348.22 804.712ZM1356.2 794.843C1357.38 796.895 1360.1 797.821 1362.93 796.186C1364.64 795.196 1365.47 793.748 1365.52 792.267C1366.03 793.15 1366.4 793.558 1366.49 793.647L1370.05 791.592C1369.95 791.477 1369.32 790.695 1368.74 789.681L1365.09 783.368C1363.56 780.718 1360.68 779.265 1356.49 781.68C1352.7 783.87 1352.4 787.302 1353.31 789.237L1357.14 787.958C1356.66 786.952 1356.88 785.581 1358.25 784.786C1359.5 784.066 1360.53 784.341 1360.96 785.094C1361.22 785.536 1361.18 786.009 1360.54 786.518L1357.77 788.74C1355.82 790.282 1354.88 792.556 1356.2 794.843ZM1362.24 792.773C1361.15 793.403 1360.33 793.008 1359.94 792.333C1359.42 791.423 1359.82 790.674 1360.57 790.064L1362.79 788.264L1363.12 788.836C1364.28 790.836 1363.41 792.098 1362.24 792.773ZM1373.97 772.111C1373.66 772.183 1373.24 772.356 1372.85 772.581C1371.82 773.181 1370.42 774.542 1370.58 776.387L1369.58 774.646L1365.76 776.851L1373.21 789.763L1377.16 787.483L1373.91 781.846C1372.42 779.274 1373.31 777.513 1374.9 776.598C1375.29 776.373 1375.72 776.159 1376.22 776.008L1373.97 772.111ZM1385.51 757.583L1381.61 759.833L1385.6 766.744C1385.01 766.43 1383.57 766.154 1381.36 767.429C1377.69 769.544 1376.76 773.928 1378.98 777.773C1381.28 781.748 1385.65 782.964 1389.29 780.864C1390.85 779.964 1391.77 778.565 1391.86 777.336C1392.16 777.856 1392.57 778.382 1392.68 778.523L1396.48 776.333C1396.28 776.062 1395.71 775.25 1395.04 774.081L1385.51 757.583ZM1382.97 775.504C1381.73 773.348 1382.5 771.513 1384.04 770.628C1385.57 769.743 1387.55 769.988 1388.79 772.144C1390.02 774.274 1389.27 776.161 1387.74 777.046C1386.21 777.931 1384.2 777.634 1382.97 775.504ZM1408.45 764.256L1402.29 753.578L1404.68 752.198C1407.51 750.563 1410.78 750.891 1412.91 754.58C1415.04 758.269 1413.68 761.241 1410.84 762.876L1408.45 764.256ZM1413.23 766.657C1418.79 763.447 1420.48 757.795 1417.2 752.105C1413.91 746.415 1408.16 745.027 1402.63 748.222L1395.95 752.077L1406.58 770.497L1413.23 766.657ZM1423.67 749.963C1423.19 748.957 1423.32 747.256 1424.98 746.296C1426.85 745.216 1428.22 746.021 1428.84 746.978L1423.67 749.963ZM1431.06 750.165C1431.28 751.388 1430.87 752.528 1429.44 753.353C1427.9 754.238 1425.98 753.964 1425.06 752.554L1434.05 747.364C1434.03 747.271 1433.74 746.644 1433.42 746.098C1431.02 741.941 1427.13 740.898 1423.13 743.208C1419.78 745.143 1418.22 749.578 1420.62 753.735C1423.12 758.074 1427.76 758.79 1431.32 756.735C1434.59 754.845 1435.57 751.789 1434.9 749.195L1431.06 750.165ZM1436.63 748.263C1437.56 749.632 1440.38 751.506 1444.43 749.166C1447.89 747.171 1448.33 744.04 1447.05 741.831C1445.96 739.935 1443.73 739.074 1440.74 740.073L1438.83 740.725C1438.2 740.952 1437.58 740.895 1437.26 740.349C1436.87 739.674 1437.27 738.857 1438.02 738.422C1439.21 737.732 1440.18 738.144 1440.78 738.942L1443.71 736.454C1442.71 735.022 1440.06 733.434 1436.32 735.594C1433.43 737.259 1432.47 740.382 1433.83 742.746C1434.88 744.565 1436.87 745.493 1439.97 744.501L1441.65 743.984C1442.73 743.637 1443.26 743.846 1443.53 744.314C1443.86 744.886 1443.69 745.716 1442.67 746.301C1441.32 747.081 1440.2 746.584 1439.64 745.73L1436.63 748.263ZM1455.87 742.044L1448.41 729.132L1444.46 731.412L1451.92 744.324L1455.87 742.044ZM1441.84 727.657C1442.58 728.931 1444.22 729.37 1445.47 728.65C1446.76 727.9 1447.2 726.261 1446.47 724.987C1445.73 723.714 1444.09 723.275 1442.8 724.025C1441.55 724.745 1441.11 726.384 1441.84 727.657ZM1458.84 741.299C1460.54 743.401 1464.22 744.323 1467.93 742.178C1472.77 739.388 1472.99 734.966 1470.84 731.251L1464.32 719.949L1460.55 722.124L1461.34 723.501C1460.59 723.036 1458.93 722.745 1456.83 723.96C1453.29 726 1452.51 730.335 1454.47 733.739C1456.54 737.324 1460.67 738.541 1464.1 736.561C1465.97 735.481 1466.66 734.083 1466.72 733.111L1467.06 733.709C1468.41 736.047 1467.75 737.713 1465.77 738.853C1464.29 739.708 1462.73 739.399 1461.75 738.302L1458.84 741.299ZM1462.85 732.712C1461.27 733.627 1459.44 733.225 1458.42 731.459C1457.4 729.692 1458.07 727.851 1459.55 726.996C1461.03 726.141 1462.93 726.497 1463.95 728.264C1464.97 730.03 1464.46 731.782 1462.85 732.712ZM1474.78 721.251C1474.03 719.952 1474.31 718.51 1475.61 717.76C1477.04 716.935 1478.27 717.507 1479 718.78L1483.29 726.21L1487.24 723.93L1482.56 715.824C1480.92 712.992 1478.13 711.52 1474.89 713.395C1473.56 714.16 1472.32 715.673 1472.33 717.299L1471.47 715.818L1467.65 718.023L1475.11 730.935L1479.06 728.655L1474.78 721.251Z" fill="black"/>
<path d="M1350.86 829.207L1359.37 843.943L1364.53 840.967C1367.23 839.407 1368.11 836.656 1366.76 834.328C1365.81 832.686 1363.97 831.753 1362.05 832.31C1363.06 831.088 1363.33 829.437 1362.42 827.858C1361.07 825.53 1358.47 824.815 1355.66 826.435L1350.86 829.207ZM1356.62 834.474L1353.93 829.818L1356.38 828.402C1358.07 827.43 1359.61 827.757 1360.42 829.15C1361.21 830.521 1360.8 832.062 1359.16 833.01L1356.62 834.474ZM1360.38 840.98L1357.63 836.22L1360.54 834.54C1362.32 833.508 1363.79 833.99 1364.61 835.403C1365.44 836.837 1364.84 838.4 1363.2 839.348L1360.38 840.98ZM1373.62 835.717L1364.93 820.669L1362.98 821.797L1371.67 836.845L1373.62 835.717ZM1380.4 829.892C1378.73 830.852 1376.56 830.444 1375.22 828.117C1373.88 825.81 1374.62 823.722 1376.28 822.762C1377.94 821.802 1380.12 822.21 1381.45 824.517C1382.79 826.844 1382.06 828.932 1380.4 829.892ZM1375.27 821.017C1372.28 822.745 1371.47 826.234 1373.22 829.269C1374.98 832.324 1378.41 833.365 1381.4 831.637C1384.4 829.909 1385.21 826.42 1383.45 823.365C1381.69 820.33 1378.27 819.289 1375.27 821.017ZM1388.42 827.891C1389.91 829.888 1392.69 830.387 1395.18 828.947C1398.95 826.775 1398.77 823.582 1397.3 821.046L1391.96 811.797L1390.03 812.913L1390.83 814.306C1389.76 813.596 1388.38 813.614 1386.84 814.502C1384.1 816.086 1383.5 819.316 1385.06 822.018C1386.69 824.844 1389.79 825.744 1392.45 824.208C1393.94 823.344 1394.61 821.993 1394.56 820.802L1395.38 822.237C1396.63 824.398 1396.3 826.031 1394.2 827.243C1392.68 828.119 1391.01 827.671 1390.06 826.362L1388.42 827.891ZM1391.79 822.398C1390.02 823.418 1388.18 822.819 1387.05 820.866C1385.94 818.933 1386.37 816.993 1388.1 815.997C1389.78 815.025 1391.67 815.621 1392.79 817.554C1393.91 819.487 1393.47 821.426 1391.79 822.398ZM1405.34 806.068C1407.04 805.084 1408.43 805.807 1409.25 806.64L1410.58 804.872C1409.29 803.595 1406.96 802.724 1404.3 804.26C1401.45 805.904 1400.53 809.346 1402.33 812.464C1404.08 815.498 1407.54 816.549 1410.45 814.869C1413.05 813.369 1413.51 810.857 1413.16 809.147L1411 809.395C1411.23 810.317 1411.28 811.981 1409.41 813.061C1407.78 813.997 1405.64 813.598 1404.32 811.312C1402.98 808.984 1403.76 806.98 1405.34 806.068ZM1414.8 808.367C1415.71 809.947 1417.84 810.604 1419.87 809.428C1421.66 808.396 1422.11 806.864 1422.13 805.905C1422.55 806.633 1422.83 806.971 1423.02 807.196L1424.93 806.092C1424.74 805.867 1424.36 805.395 1423.86 804.522L1420.97 799.513C1419.84 797.559 1417.69 796.527 1414.7 798.255C1412.54 799.503 1411.58 801.829 1412.47 803.862L1414.6 803.218C1414.05 801.982 1414.33 800.686 1415.7 799.894C1417.22 799.018 1418.33 799.457 1418.89 800.433C1419.1 800.787 1419.11 801.194 1418.55 801.626L1416.08 803.581C1414.5 804.826 1413.77 806.58 1414.8 808.367ZM1419.19 807.63C1418.2 808.206 1417.17 807.859 1416.73 807.111C1416.22 806.217 1416.57 805.379 1417.32 804.775L1420.12 802.553L1420.38 803.011C1421.64 805.193 1420.8 806.706 1419.19 807.63ZM1427.57 791.102C1427.45 791.141 1427.16 791.255 1426.89 791.411C1425.87 791.999 1424.84 793.094 1425 795.052L1423.99 793.306L1422.08 794.41L1427.85 804.407L1429.8 803.279L1426.91 798.27C1425.64 796.067 1426.24 794.558 1427.88 793.61C1428.15 793.454 1428.45 793.307 1428.77 793.18L1427.57 791.102ZM1433.64 794.358C1432.45 792.3 1432.78 790.173 1434.56 789.141C1436.35 788.109 1438.25 788.898 1439.44 790.956C1440.62 793.014 1440.42 795.208 1438.63 796.24C1436.76 797.32 1434.83 796.415 1433.64 794.358ZM1441.6 794.664C1441.95 795.267 1442.31 795.751 1442.49 795.955L1444.38 794.863C1444.26 794.709 1443.76 794.03 1443.21 793.074L1435.59 779.875L1433.65 780.991L1437.39 787.455C1436.59 786.837 1435.13 786.516 1433.36 787.536C1430.53 789.168 1430.01 792.683 1431.64 795.51C1433.36 798.482 1436.51 799.766 1439.44 798.074C1441 797.174 1441.58 795.73 1441.51 794.498L1441.6 794.664ZM1450.58 783.245C1449.92 781.909 1450.19 780.065 1451.83 779.117C1453.6 778.097 1455.18 778.679 1456.05 780.089L1450.58 783.245ZM1457.84 782.519C1458.11 783.858 1457.82 785.219 1456.2 786.155C1454.51 787.127 1452.51 786.624 1451.43 784.861L1458.96 780.517C1458.91 780.38 1458.78 780.119 1458.64 779.869C1456.84 776.752 1453.89 775.628 1450.81 777.404C1448.3 778.856 1447.27 782.304 1449.08 785.443C1451.04 788.831 1454.51 789.428 1457.19 787.88C1459.52 786.536 1460.32 784.22 1459.86 782.129L1457.84 782.519ZM1462.5 784.399L1464.83 783.055L1465.24 777.913L1469.94 780.103L1472.29 778.747C1471.22 778.285 1466.75 776.242 1465.67 775.779L1466.4 768.822L1464.09 770.154L1463.71 775.059L1459.23 772.962L1456.86 774.33L1463.28 777.159L1462.5 784.399ZM1478.38 780.498L1475.32 775.198C1476.38 775.78 1477.96 775.835 1479.5 774.947C1482.43 773.255 1482.82 769.952 1481.11 766.98C1479.43 764.07 1476.49 762.687 1473.5 764.415C1471.88 765.351 1471.15 766.825 1471.19 768.134L1470.29 766.575L1468.4 767.667L1476.45 781.614L1478.38 780.498ZM1479.11 768.132C1480.3 770.189 1480.01 772.325 1478.2 773.369C1476.41 774.401 1474.38 773.609 1473.19 771.552C1472.04 769.556 1472.36 767.376 1474.14 766.344C1475.97 765.288 1477.96 766.136 1479.11 768.132ZM1488.44 769.424L1479.75 754.376L1477.8 755.504L1486.49 770.552L1488.44 769.424ZM1495.22 763.599C1493.56 764.559 1491.38 764.152 1490.04 761.824C1488.71 759.517 1489.44 757.429 1491.1 756.469C1492.77 755.509 1494.94 755.917 1496.27 758.224C1497.62 760.552 1496.88 762.639 1495.22 763.599ZM1490.1 754.724C1487.1 756.452 1486.29 759.941 1488.04 762.976C1489.81 766.031 1493.23 767.072 1496.23 765.344C1499.22 763.616 1500.03 760.127 1498.27 757.072C1496.52 754.037 1493.09 752.996 1490.1 754.724ZM1503.38 747.332C1503.26 747.371 1502.97 747.486 1502.7 747.642C1501.68 748.23 1500.65 749.324 1500.81 751.282L1499.8 749.536L1497.89 750.64L1503.66 760.638L1505.61 759.51L1502.72 754.5C1501.45 752.297 1502.05 750.788 1503.69 749.84C1503.96 749.684 1504.26 749.537 1504.58 749.411L1503.38 747.332ZM1509.12 753.91C1510.03 755.49 1512.16 756.147 1514.2 754.971C1515.98 753.939 1516.43 752.407 1516.46 751.448C1516.88 752.176 1517.16 752.514 1517.34 752.739L1519.25 751.635C1519.07 751.41 1518.68 750.938 1518.18 750.065L1515.29 745.056C1514.16 743.102 1512.01 742.07 1509.02 743.798C1506.86 745.046 1505.9 747.372 1506.8 749.405L1508.92 748.761C1508.37 747.525 1508.65 746.229 1510.02 745.437C1511.54 744.561 1512.65 744.999 1513.21 745.976C1513.42 746.33 1513.43 746.737 1512.88 747.169L1510.4 749.124C1508.82 750.369 1508.09 752.123 1509.12 753.91ZM1513.52 753.173C1512.52 753.749 1511.49 753.402 1511.06 752.654C1510.54 751.76 1510.89 750.922 1511.65 750.318L1514.44 748.096L1514.7 748.554C1515.96 750.736 1515.12 752.249 1513.52 753.173ZM1517.19 735.281L1515.41 736.313L1516.34 737.935C1516.85 738.808 1516.77 739.737 1515.69 740.361L1515.15 740.673L1516.17 742.439L1518.08 741.335L1521.25 746.822C1522.3 748.631 1523.98 749.046 1525.68 748.062C1526.35 747.678 1526.77 747.265 1526.9 747.107L1525.94 745.444C1525.8 745.582 1525.47 745.827 1525.22 745.971C1524.2 746.559 1523.57 746.318 1523.04 745.403L1520.04 740.207L1522.2 738.959L1521.18 737.193L1519.02 738.441L1517.19 735.281ZM1531.49 744.568L1525.72 734.571L1523.79 735.687L1529.56 745.684L1531.49 744.568ZM1521.17 732.156C1521.61 732.925 1522.6 733.189 1523.36 732.745C1524.15 732.289 1524.42 731.305 1523.97 730.536C1523.52 729.746 1522.53 729.483 1521.74 729.939C1520.98 730.383 1520.71 731.366 1521.17 732.156ZM1538.27 738.743C1536.61 739.703 1534.43 739.296 1533.09 736.968C1531.76 734.661 1532.49 732.574 1534.15 731.614C1535.82 730.654 1537.99 731.061 1539.32 733.368C1540.67 735.696 1539.93 737.783 1538.27 738.743ZM1533.15 729.868C1530.15 731.596 1529.34 735.086 1531.09 738.12C1532.86 741.175 1536.29 742.217 1539.28 740.489C1542.27 738.761 1543.08 735.271 1541.32 732.216C1539.57 729.182 1536.14 728.14 1533.15 729.868ZM1545.33 728.876C1544.45 727.359 1544.53 725.676 1546.07 724.788C1547.82 723.78 1549.05 724.567 1549.85 725.959L1553.32 731.966L1555.27 730.838L1551.61 724.499C1550.33 722.275 1548.15 721.234 1545.76 722.614C1544.6 723.286 1543.69 724.448 1543.68 726.115L1542.85 724.681L1540.94 725.785L1546.71 735.782L1548.67 734.654L1545.33 728.876Z" fill="#66738F"/>
<g filter="url(#filter1_d_13_432)">
<rect x="1332" y="292.5" width="397" height="320" rx="32" transform="rotate(-30 1332 292.5)" fill="white"/>
</g>
<path d="M1535.19 462.42C1539.33 460.032 1539.86 456.064 1539.12 453.475L1535.97 454.212C1536.36 455.812 1536.09 458.162 1533.57 459.614C1531.2 460.982 1528 460.529 1526.19 457.39C1524.26 454.044 1525.67 451.12 1527.88 449.848C1530.43 448.372 1532.48 449.271 1533.65 450.48L1535.86 448.068C1533.9 446.014 1530.36 444.732 1526.28 447.084C1522.33 449.364 1520.51 454.409 1523.22 459.106C1525.93 463.803 1531.08 464.796 1535.19 462.42ZM1549.72 453.616L1541.21 438.88L1538.3 440.56L1546.81 455.296L1549.72 453.616ZM1562.96 445.975L1566.16 444.127L1559.52 439.923C1561.13 438.246 1561.43 435.991 1560.24 433.933C1558.77 431.377 1555.8 430.458 1552.93 432.114L1547.17 435.438L1555.68 450.175L1558.57 448.507L1555.29 442.833L1556.79 441.969L1562.96 445.975ZM1553.87 440.359L1551.5 436.265L1553.83 434.921C1555.28 434.081 1556.6 434.399 1557.32 435.646C1558.02 436.852 1557.65 438.175 1556.19 439.015L1553.87 440.359ZM1578.02 437.693C1582.16 435.305 1582.69 431.338 1581.94 428.748L1578.8 429.485C1579.19 431.085 1578.91 433.435 1576.4 434.887C1574.03 436.255 1570.83 435.802 1569.02 432.664C1567.09 429.317 1568.5 426.394 1570.71 425.122C1573.26 423.646 1575.31 424.544 1576.47 425.754L1578.68 423.342C1576.72 421.287 1573.18 420.005 1569.11 422.357C1565.16 424.637 1563.33 429.682 1566.05 434.38C1568.76 439.077 1573.9 440.069 1578.02 437.693ZM1595.22 427.792C1598.38 425.968 1599.77 422.583 1597.69 418.967L1592.19 409.447L1589.32 411.103L1594.7 420.415C1595.81 422.348 1595.34 423.978 1593.6 424.986C1591.89 425.97 1590.22 425.576 1589.11 423.643L1583.73 414.331L1580.86 415.987L1586.36 425.507C1588.45 429.123 1592.08 429.604 1595.22 427.792ZM1615.96 415.371L1614.38 412.628L1607.81 416.42L1600.89 404.427L1598.02 406.083L1606.53 420.819L1615.96 415.371ZM1630.91 406.739L1634.03 404.939L1619.91 393.442L1616.59 395.362L1619.44 413.363L1622.48 411.611L1621.76 407.536L1627.74 404.08L1630.91 406.739ZM1620.02 397.618L1625.28 402.013L1621.2 404.365L1620.02 397.618ZM1645.79 398.151L1648.99 396.303L1642.35 392.099C1643.96 390.422 1644.27 388.167 1643.08 386.109C1641.6 383.553 1638.63 382.634 1635.76 384.29L1630.01 387.614L1638.51 402.351L1641.4 400.683L1638.13 395.008L1639.62 394.144L1645.79 398.151ZM1636.7 392.535L1634.34 388.44L1636.66 387.096C1638.12 386.256 1639.44 386.575 1640.16 387.822C1640.85 389.028 1640.48 390.351 1639.03 391.191L1636.7 392.535ZM1663.22 381.489L1661.81 379.036L1655.78 382.516L1657.2 384.969L1663.22 381.489ZM1669.49 364.821L1677.99 379.558L1683.69 376.27C1686.45 374.674 1687.24 371.916 1685.86 369.526C1684.81 367.697 1682.89 367.06 1681.25 367.534C1682.24 366.411 1682.44 364.656 1681.57 363.139C1680.25 360.853 1677.65 360.105 1674.79 361.761L1669.49 364.821ZM1675.83 369.279L1673.7 365.6L1675.72 364.436C1677.11 363.632 1678.25 363.919 1678.9 365.041C1679.54 366.164 1679.17 367.347 1677.86 368.103L1675.83 369.279ZM1679.44 375.535L1677.2 371.649L1679.57 370.281C1681 369.453 1682.22 369.831 1682.89 370.995C1683.57 372.18 1683.16 373.387 1681.77 374.191L1679.44 375.535ZM1691.12 362.143C1689.2 358.817 1690.61 355.894 1692.88 354.586C1695.16 353.266 1698.4 353.501 1700.32 356.827C1702.24 360.152 1700.83 363.076 1698.54 364.396C1696.28 365.704 1693.04 365.468 1691.12 362.143ZM1688.16 363.88C1690.89 368.618 1696.16 369.485 1700.15 367.181C1704.16 364.865 1706.04 359.87 1703.31 355.132C1700.56 350.372 1695.29 349.505 1691.28 351.821C1687.29 354.125 1685.41 359.12 1688.16 363.88ZM1722.08 354.106L1720.49 351.362L1713.93 355.154L1707 343.161L1704.13 344.817L1712.64 359.554L1722.08 354.106ZM1728.2 347.022L1722.77 337.607L1725.07 336.275C1727.48 334.883 1730.36 335.248 1732.2 338.449C1734.05 341.65 1732.9 344.31 1730.49 345.702L1728.2 347.022ZM1732.13 348.303C1736.33 345.879 1737.86 341.389 1735.18 336.733C1732.49 332.077 1727.84 331.131 1723.64 333.555L1718.36 336.603L1726.87 351.339L1732.13 348.303Z" fill="#6E7191"/>
<path d="M1348 319.213C1339.16 303.907 1344.41 284.337 1359.71 275.5L1646.37 110C1661.67 101.163 1681.24 106.407 1690.08 121.713L1772.42 264.325L1430.34 461.825L1348 319.213Z" fill="#7650E0"/>
<g opacity="0.6">
<path d="M510.5 964V922.4H507.5V964H510.5ZM547.4 885.5H589V882.5H547.4V885.5ZM510.5 922.4C510.5 915.655 510.501 910.686 510.822 906.759C511.141 902.85 511.77 900.105 512.952 897.785L510.279 896.423C508.846 899.237 508.167 902.42 507.832 906.515C507.499 910.592 507.5 915.704 507.5 922.4H510.5ZM547.4 882.5C540.704 882.5 535.592 882.499 531.515 882.832C527.42 883.167 524.237 883.846 521.423 885.279L522.785 887.952C525.105 886.77 527.85 886.141 531.759 885.822C535.686 885.501 540.655 885.5 547.4 885.5V882.5ZM512.952 897.785C515.11 893.552 518.552 890.11 522.785 887.952L521.423 885.279C516.625 887.724 512.724 891.625 510.279 896.423L512.952 897.785Z" fill="white"/>
<path d="M591.061 885.061C591.646 884.475 591.646 883.525 591.061 882.939L581.515 873.393C580.929 872.808 579.979 872.808 579.393 873.393C578.808 873.979 578.808 874.929 579.393 875.515L587.879 884L579.393 892.485C578.808 893.071 578.808 894.021 579.393 894.607C579.979 895.192 580.929 895.192 581.515 894.607L591.061 885.061ZM589 885.5H590V882.5H589V885.5Z" fill="white"/>
</g>
<path d="M101.5 253V294.6H98.5V253H101.5ZM138.4 331.5H180V334.5H138.4V331.5ZM101.5 294.6C101.5 301.345 101.501 306.314 101.822 310.241C102.141 314.15 102.77 316.895 103.952 319.215L101.279 320.577C99.8457 317.763 99.1665 314.58 98.832 310.485C98.4988 306.408 98.5 301.296 98.5 294.6H101.5ZM138.4 334.5C131.704 334.5 126.592 334.501 122.515 334.168C118.42 333.833 115.237 333.154 112.423 331.721L113.785 329.048C116.105 330.23 118.85 330.859 122.759 331.178C126.686 331.499 131.655 331.5 138.4 331.5V334.5ZM103.952 319.215C106.11 323.448 109.552 326.89 113.785 329.048L112.423 331.721C107.625 329.276 103.724 325.375 101.279 320.577L103.952 319.215Z" fill="white"/>
<path d="M182.061 331.939C182.646 332.525 182.646 333.475 182.061 334.061L172.515 343.607C171.929 344.192 170.979 344.192 170.393 343.607C169.808 343.021 169.808 342.071 170.393 341.485L178.879 333L170.393 324.515C169.808 323.929 169.808 322.979 170.393 322.393C170.979 321.808 171.929 321.808 172.515 322.393L182.061 331.939ZM180 331.5H181V334.5H180V331.5Z" fill="white"/>
<rect width="14" height="14" rx="7" transform="matrix(1 0 0 -1 93 253)" fill="white"/>
<g opacity="0.6">
<path d="M1926 574.5L1884.4 574.5L1884.4 577.5L1926 577.5L1926 574.5ZM1847.5 537.6L1847.5 496L1844.5 496L1844.5 537.6L1847.5 537.6ZM1884.4 574.5C1877.65 574.5 1872.69 574.499 1868.76 574.178C1864.85 573.859 1862.11 573.23 1859.79 572.048L1858.42 574.721C1861.24 576.154 1864.42 576.833 1868.51 577.168C1872.59 577.501 1877.7 577.5 1884.4 577.5L1884.4 574.5ZM1844.5 537.6C1844.5 544.296 1844.5 549.408 1844.83 553.485C1845.17 557.58 1845.85 560.763 1847.28 563.577L1849.95 562.215C1848.77 559.895 1848.14 557.15 1847.82 553.241C1847.5 549.314 1847.5 544.345 1847.5 537.6L1844.5 537.6ZM1859.79 572.048C1855.55 569.89 1852.11 566.448 1849.95 562.215L1847.28 563.577C1849.72 568.375 1853.63 572.276 1858.42 574.721L1859.79 572.048Z" fill="white"/>
<path d="M1847.06 493.939C1846.47 493.354 1845.53 493.354 1844.94 493.939L1835.39 503.485C1834.81 504.071 1834.81 505.021 1835.39 505.607C1835.98 506.192 1836.93 506.192 1837.51 505.607L1846 497.121L1854.49 505.607C1855.07 506.192 1856.02 506.192 1856.61 505.607C1857.19 505.021 1857.19 504.071 1856.61 503.485L1847.06 493.939ZM1847.5 496L1847.5 495L1844.5 495L1844.5 496L1847.5 496Z" fill="white"/>
</g>
<rect x="1097" y="843.133" width="88.262" height="53.6495" rx="26.8247" transform="rotate(-30 1097 843.133)" fill="#14014A"/>
<g filter="url(#filter2_d_13_432)">
<path fill-rule="evenodd" clip-rule="evenodd" d="M1175.73 856.627C1187.32 849.937 1191.29 835.119 1184.6 823.53C1177.91 811.942 1163.09 807.971 1151.5 814.662C1139.92 821.352 1135.95 836.17 1142.64 847.759C1149.33 859.347 1164.14 863.318 1175.73 856.627Z" fill="white"/>
<path fill-rule="evenodd" clip-rule="evenodd" d="M1175.73 856.627C1187.32 849.937 1191.29 835.119 1184.6 823.53C1177.91 811.942 1163.09 807.971 1151.5 814.662C1139.92 821.352 1135.95 836.17 1142.64 847.759C1149.33 859.347 1164.14 863.318 1175.73 856.627Z" stroke="black" stroke-opacity="0.101987" stroke-width="0.5"/>
</g>
<rect x="1727" y="246.133" width="88.262" height="53.6495" rx="26.8247" transform="rotate(-30 1727 246.133)" fill="#F1F1F1"/>
<g filter="url(#filter3_d_13_432)">
<path fill-rule="evenodd" clip-rule="evenodd" d="M1775.76 276.934C1787.35 270.243 1791.32 255.425 1784.63 243.837C1777.94 232.248 1763.12 228.278 1751.53 234.969C1739.94 241.659 1735.97 256.477 1742.66 268.066C1749.35 279.654 1764.17 283.625 1775.76 276.934Z" fill="#14014A"/>
<path d="M1751.65 235.185C1763.12 228.564 1777.79 232.493 1784.41 243.961C1791.03 255.43 1787.1 270.096 1775.63 276.718C1764.16 283.339 1749.5 279.409 1742.88 267.94C1736.26 256.472 1740.19 241.807 1751.65 235.185Z" stroke="#F1F1F1" stroke-width="0.5"/>
</g>
<rect opacity="0.5" x="1514" y="900.332" width="572.664" height="8.11748" rx="4.05874" transform="rotate(-30 1514 900.332)" fill="#F2F3F5"/>
<circle cx="1626.03" cy="840.624" r="21.5604" transform="rotate(-30 1626.03 840.624)" fill="#14014A" stroke="white" stroke-width="4.48919"/>
<g filter="url(#filter4_d_13_432)">
<rect x="1004.95" y="337.093" width="241" height="70" rx="35" transform="rotate(-30 1004.95 337.093)" fill="#14014A"/>
<path d="M1101.22 314.524L1107.42 325.26L1111.39 322.969C1113.39 321.815 1114 319.804 1113.01 318.078C1112.27 316.806 1110.92 316.277 1109.61 316.63C1110.34 315.763 1110.52 314.531 1109.86 313.395C1108.89 311.714 1106.98 311.202 1104.92 312.391L1101.22 314.524ZM1105.65 318.026L1103.92 315.028L1105.52 314.102C1106.63 313.464 1107.61 313.687 1108.13 314.595C1108.65 315.489 1108.36 316.462 1107.3 317.074L1105.65 318.026ZM1108.33 322.675L1106.53 319.556L1108.44 318.454C1109.56 317.807 1110.56 318.1 1111.09 319.024C1111.64 319.978 1111.27 320.979 1110.18 321.608L1108.33 322.675ZM1120.63 316.542C1120.81 316.844 1121.04 317.175 1121.17 317.324L1122.85 316.354C1122.66 316.099 1122.34 315.656 1121.99 315.05L1118.51 309.024L1116.76 310.038L1119.28 314.399C1119.84 315.368 1119.7 316.355 1118.68 316.941C1117.62 317.553 1116.75 317.025 1116.23 316.117L1113.73 311.786L1111.97 312.8L1114.66 317.449C1115.6 319.084 1117.38 319.792 1119.14 318.778C1120 318.279 1120.66 317.418 1120.63 316.542ZM1121.74 304.152L1120.15 305.07L1120.79 306.176C1121.17 306.827 1121.11 307.528 1120.32 307.982L1119.94 308.201L1120.84 309.76L1122.2 308.973L1124.35 312.683C1125.14 314.061 1126.46 314.389 1127.82 313.602C1128.46 313.235 1128.72 312.922 1128.8 312.815L1127.96 311.361C1127.9 311.42 1127.63 311.632 1127.39 311.772C1126.74 312.148 1126.3 312.041 1125.92 311.39L1123.94 307.968L1125.47 307.085L1124.57 305.526L1123.04 306.409L1121.74 304.152ZM1127.3 300.942L1125.71 301.86L1126.35 302.965C1126.73 303.616 1126.67 304.317 1125.88 304.772L1125.5 304.99L1126.4 306.55L1127.76 305.763L1129.91 309.473C1130.7 310.851 1132.02 311.179 1133.38 310.392C1134.02 310.025 1134.28 309.711 1134.36 309.605L1133.52 308.151C1133.46 308.21 1133.2 308.422 1132.95 308.561C1132.3 308.937 1131.86 308.831 1131.48 308.18L1129.51 304.758L1131.03 303.875L1130.13 302.315L1128.6 303.198L1127.3 300.942ZM1138.61 305.454C1137.54 306.075 1136.08 305.825 1135.2 304.296C1134.32 302.767 1134.85 301.411 1135.92 300.79C1137.01 300.161 1138.44 300.389 1139.32 301.918C1140.21 303.463 1139.71 304.825 1138.61 305.454ZM1135 299.201C1132.81 300.468 1132.14 303.054 1133.44 305.31C1134.76 307.581 1137.33 308.296 1139.52 307.029C1141.73 305.752 1142.4 303.167 1141.09 300.895C1139.79 298.639 1137.22 297.924 1135 299.201ZM1144.25 298.324C1143.69 297.355 1143.78 296.276 1144.78 295.699C1145.88 295.061 1146.71 295.552 1147.23 296.46L1149.75 300.821L1151.51 299.807L1148.82 295.144C1147.88 293.523 1146.26 292.72 1144.46 293.76C1143.65 294.232 1142.97 295.087 1142.97 296.215L1142.41 295.231L1140.69 296.219L1144.95 303.592L1146.71 302.578L1144.25 298.324Z" fill="white"/>
</g>
<rect x="1085.07" y="417.856" width="183" height="60" rx="30" transform="rotate(-30 1085.07 417.856)" stroke="white" stroke-opacity="0.49" stroke-width="1.5"/>
<path d="M1153.74 405.456L1159.93 416.192L1163.9 413.901C1165.9 412.747 1166.51 410.736 1165.52 409.01C1164.78 407.738 1163.43 407.209 1162.12 407.562C1162.85 406.695 1163.03 405.463 1162.37 404.327C1161.4 402.646 1159.49 402.134 1157.43 403.323L1153.74 405.456ZM1158.16 408.958L1156.43 405.96L1158.03 405.034C1159.14 404.396 1160.12 404.619 1160.64 405.527C1161.16 406.421 1160.87 407.394 1159.81 408.006L1158.16 408.958ZM1160.84 413.607L1159.04 410.488L1160.95 409.386C1162.07 408.739 1163.07 409.032 1163.6 409.956C1164.15 410.91 1163.78 411.911 1162.69 412.54L1160.84 413.607ZM1173.14 407.474C1173.32 407.777 1173.55 408.107 1173.68 408.256L1175.36 407.286C1175.17 407.031 1174.85 406.588 1174.5 405.982L1171.03 399.956L1169.27 400.97L1171.79 405.331C1172.35 406.3 1172.21 407.287 1171.19 407.873C1170.13 408.485 1169.27 407.957 1168.74 407.049L1166.24 402.718L1164.48 403.732L1167.17 408.381C1168.11 410.016 1169.89 410.724 1171.65 409.71C1172.51 409.211 1173.17 408.35 1173.14 407.474ZM1174.25 395.084L1172.66 396.002L1173.3 397.108C1173.68 397.759 1173.62 398.46 1172.83 398.914L1172.45 399.133L1173.35 400.692L1174.71 399.906L1176.86 403.615C1177.65 404.993 1178.97 405.321 1180.33 404.534C1180.97 404.167 1181.23 403.854 1181.31 403.747L1180.47 402.294C1180.41 402.352 1180.15 402.564 1179.9 402.704C1179.25 403.08 1178.81 402.973 1178.43 402.322L1176.46 398.9L1177.98 398.017L1177.08 396.458L1175.55 397.341L1174.25 395.084ZM1179.81 391.874L1178.22 392.792L1178.86 393.897C1179.24 394.548 1179.18 395.249 1178.39 395.704L1178.01 395.922L1178.91 397.482L1180.27 396.695L1182.42 400.405C1183.21 401.783 1184.53 402.111 1185.89 401.324C1186.53 400.957 1186.79 400.643 1186.87 400.537L1186.03 399.083C1185.97 399.142 1185.71 399.354 1185.46 399.493C1184.81 399.869 1184.37 399.763 1183.99 399.112L1182.02 395.69L1183.54 394.807L1182.64 393.247L1181.12 394.13L1179.81 391.874ZM1191.13 396.386C1190.05 397.007 1188.59 396.757 1187.71 395.228C1186.83 393.699 1187.36 392.343 1188.43 391.723C1189.52 391.093 1190.95 391.321 1191.83 392.85C1192.72 394.395 1192.22 395.757 1191.13 396.386ZM1187.51 390.133C1185.32 391.4 1184.65 393.986 1185.95 396.242C1187.27 398.513 1189.84 399.228 1192.03 397.961C1194.25 396.685 1194.91 394.099 1193.6 391.827C1192.3 389.571 1189.73 388.856 1187.51 390.133ZM1196.76 389.256C1196.2 388.287 1196.29 387.208 1197.29 386.631C1198.39 385.993 1199.22 386.484 1199.74 387.393L1202.26 391.753L1204.02 390.739L1201.33 386.076C1200.39 384.455 1198.78 383.652 1196.97 384.692C1196.16 385.164 1195.48 386.019 1195.48 387.147L1194.92 386.163L1193.2 387.151L1197.46 394.525L1199.22 393.51L1196.76 389.256Z" fill="white"/>
<g filter="url(#filter5_d_13_432)">
<rect x="931" y="247" width="280" height="80" rx="39.9634" transform="rotate(-30 931 247)" fill="white"/>
<path d="M1039.48 221.369L1047.45 235.172L1053.02 231.957C1055.63 230.451 1056.39 227.807 1055.08 225.549C1054.05 223.758 1052.18 223.306 1050.76 223.733C1051.68 222.712 1051.9 221.026 1051.08 219.605C1049.85 217.483 1047.37 216.817 1044.64 218.39L1039.48 221.369ZM1045.67 225.167L1043.95 222.188L1045.59 221.244C1046.79 220.547 1047.74 220.783 1048.25 221.678C1048.79 222.613 1048.42 223.582 1047.35 224.2L1045.67 225.167ZM1049 230.929L1047.13 227.698L1049.06 226.585C1050.27 225.888 1051.35 226.145 1051.9 227.099C1052.47 228.092 1052.11 229.131 1050.93 229.817L1049 230.929ZM1065.44 224.783L1068.29 223.142C1068.18 222.998 1067.69 222.342 1067.19 221.466L1062.6 213.523L1059.64 215.232L1062.82 220.741C1063.39 221.714 1063.16 222.755 1062.16 223.329C1061.11 223.936 1060.18 223.488 1059.64 222.554L1056.47 217.064L1053.51 218.772L1057.04 224.885C1058.23 226.949 1060.54 227.897 1062.9 226.537C1063.87 225.975 1064.78 224.984 1064.8 223.855C1064.95 224.108 1065.3 224.631 1065.44 224.783ZM1067.08 207.174L1064.43 208.703L1065.15 209.949C1065.67 210.844 1065.58 211.807 1064.56 212.391L1064.08 212.672L1065.57 215.261L1067.28 214.272L1069.68 218.419C1070.79 220.346 1072.7 220.826 1074.71 219.668C1075.64 219.129 1076.01 218.633 1076.09 218.508L1074.67 216.055C1074.52 216.195 1074.26 216.422 1073.95 216.602C1073.31 216.972 1072.76 217.006 1072.3 216.207L1070.2 212.586L1072.09 211.496L1070.6 208.907L1068.71 209.997L1067.08 207.174ZM1074.47 202.905L1071.83 204.434L1072.55 205.68C1073.06 206.575 1072.97 207.538 1071.96 208.122L1071.47 208.403L1072.97 210.992L1074.68 210.003L1077.07 214.15C1078.19 216.077 1080.1 216.556 1082.1 215.399C1083.04 214.859 1083.4 214.364 1083.48 214.238L1082.07 211.785C1081.91 211.925 1081.66 212.152 1081.34 212.332C1080.7 212.703 1080.15 212.736 1079.69 211.938L1077.6 208.317L1079.49 207.227L1077.99 204.638L1076.1 205.728L1074.47 202.905ZM1088.56 208.195C1087.45 208.835 1085.92 208.655 1084.98 207.04C1084.04 205.404 1084.67 204.027 1085.78 203.386C1086.91 202.734 1088.4 202.887 1089.34 204.522C1090.29 206.157 1089.69 207.543 1088.56 208.195ZM1084.21 200.661C1081.33 202.324 1080.29 205.75 1082.02 208.748C1083.75 211.746 1087.25 212.584 1090.13 210.92C1093.03 209.245 1094.03 205.811 1092.3 202.813C1090.57 199.815 1087.11 198.986 1084.21 200.661ZM1096.72 199.327C1096.16 198.353 1096.37 197.273 1097.34 196.712C1098.41 196.093 1099.33 196.521 1099.88 197.475L1103.1 203.043L1106.06 201.335L1102.55 195.261C1101.33 193.139 1099.24 192.036 1096.8 193.44C1095.81 194.014 1094.88 195.147 1094.88 196.366L1094.24 195.256L1091.38 196.908L1096.97 206.584L1099.93 204.875L1096.72 199.327Z" fill="black"/>
</g>
</g>
<defs>
<filter id="filter0_d_13_432" x="1121.71" y="377.688" width="626.665" height="613.854" filterUnits="userSpaceOnUse" color-interpolation-filters="sRGB">
<feFlood flood-opacity="0" result="BackgroundImageFix"/>
<feColorMatrix in="SourceAlpha" type="matrix" values="0 0 0 0 0 0 0 0 0 0 0 0 0 0 0 0 0 0 127 0" result="hardAlpha"/>
<feOffset dy="32"/>
<feGaussianBlur stdDeviation="32"/>
<feColorMatrix type="matrix" values="0 0 0 0 0.0666667 0 0 0 0 0.0666667 0 0 0 0 0.0666667 0 0 0 0.08 0"/>
<feBlend mode="normal" in2="BackgroundImageFix" result="effect1_dropShadow_13_432"/>
<feBlend mode="normal" in="SourceGraphic" in2="effect1_dropShadow_13_432" result="shape"/>
</filter>
<filter id="filter1_d_13_432" x="1343.71" y="75.7075" width="620.397" height="592.213" filterUnits="userSpaceOnUse" color-interpolation-filters="sRGB">
<feFlood flood-opacity="0" result="BackgroundImageFix"/>
<feColorMatrix in="SourceAlpha" type="matrix" values="0 0 0 0 0 0 0 0 0 0 0 0 0 0 0 0 0 0 127 0" result="hardAlpha"/>
<feOffset dx="70" dy="40"/>
<feGaussianBlur stdDeviation="35"/>
<feColorMatrix type="matrix" values="0 0 0 0 0.0666667 0 0 0 0 0.0666667 0 0 0 0 0.0666667 0 0 0 0.16 0"/>
<feBlend mode="normal" in2="BackgroundImageFix" result="effect1_dropShadow_13_432"/>
<feBlend mode="normal" in="SourceGraphic" in2="effect1_dropShadow_13_432" result="shape"/>
</filter>
<filter id="filter2_d_13_432" x="1131.14" y="806.162" width="64.9658" height="64.9658" filterUnits="userSpaceOnUse" color-interpolation-filters="sRGB">
<feFlood flood-opacity="0" result="BackgroundImageFix"/>
<feColorMatrix in="SourceAlpha" type="matrix" values="0 0 0 0 0 0 0 0 0 0 0 0 0 0 0 0 0 0 127 0" result="hardAlpha"/>
<feOffset dy="3"/>
<feGaussianBlur stdDeviation="4"/>
<feColorMatrix type="matrix" values="0 0 0 0 0 0 0 0 0 0 0 0 0 0 0 0 0 0 0.09 0"/>
<feBlend mode="normal" in2="BackgroundImageFix" result="effect1_dropShadow_13_432"/>
<feBlend mode="normal" in="SourceGraphic" in2="effect1_dropShadow_13_432" result="shape"/>
</filter>
<filter id="filter3_d_13_432" x="1737.41" y="231.718" width="52.4658" height="52.4657" filterUnits="userSpaceOnUse" color-interpolation-filters="sRGB">
<feFlood flood-opacity="0" result="BackgroundImageFix"/>
<feColorMatrix in="SourceAlpha" type="matrix" values="0 0 0 0 0 0 0 0 0 0 0 0 0 0 0 0 0 0 127 0" result="hardAlpha"/>
<feOffset dy="2"/>
<feGaussianBlur stdDeviation="1"/>
<feColorMatrix type="matrix" values="0 0 0 0 0 0 0 0 0 0 0 0 0 0 0 0 0 0 0.1 0"/>
<feBlend mode="normal" in2="BackgroundImageFix" result="effect1_dropShadow_13_432"/>
<feBlend mode="normal" in="SourceGraphic" in2="effect1_dropShadow_13_432" result="shape"/>
</filter>
<filter id="filter4_d_13_432" x="980.954" y="200.593" width="305.712" height="243.122" filterUnits="userSpaceOnUse" color-interpolation-filters="sRGB">
<feFlood flood-opacity="0" result="BackgroundImageFix"/>
<feColorMatrix in="SourceAlpha" type="matrix" values="0 0 0 0 0 0 0 0 0 0 0 0 0 0 0 0 0 0 127 0" result="hardAlpha"/>
<feOffset dx="7" dy="15"/>
<feGaussianBlur stdDeviation="15.5"/>
<feColorMatrix type="matrix" values="0 0 0 0 0 0 0 0 0 0 0 0 0 0 0 0 0 0 0.2 0"/>
<feBlend mode="normal" in2="BackgroundImageFix" result="effect1_dropShadow_13_432"/>
<feBlend mode="normal" in="SourceGraphic" in2="effect1_dropShadow_13_432" result="shape"/>
</filter>
<filter id="filter5_d_13_432" x="888" y="86" width="382.487" height="309.282" filterUnits="userSpaceOnUse" color-interpolation-filters="sRGB">
<feFlood flood-opacity="0" result="BackgroundImageFix"/>
<feColorMatrix in="SourceAlpha" type="matrix" values="0 0 0 0 0 0 0 0 0 0 0 0 0 0 0 0 0 0 127 0" result="hardAlpha"/>
<feOffset dx="7" dy="29"/>
<feGaussianBlur stdDeviation="25"/>
<feColorMatrix type="matrix" values="0 0 0 0 0 0 0 0 0 0 0 0 0 0 0 0 0 0 0.1 0"/>
<feBlend mode="normal" in2="BackgroundImageFix" result="effect1_dropShadow_13_432"/>
<feBlend mode="normal" in="SourceGraphic" in2="effect1_dropShadow_13_432" result="shape"/>
</filter>
<linearGradient id="paint0_linear_13_432" x1="-115.606" y1="-62.5" x2="1741.58" y2="1401.86" gradientUnits="userSpaceOnUse">
<stop stop-color="#220152"/>
<stop offset="1" stop-color="#060040"/>
</linearGradient>
<clipPath id="clip0_13_432">
<rect width="1920" height="960" fill="white"/>
</clipPath>
</defs>
</svg>
